<svg width="48" height="48" viewBox="0 0 48 48" fill="none" xmlns="http://www.w3.org/2000/svg">
<path d="M38 4H29.64C28.8 1.68 26.6 0 24 0C21.4 0 19.2 1.68 18.36 4H10C7.8 4 6 5.8 6 8V40C6 42.2 7.8 44 10 44H38C40.2 44 42 42.2 42 40V8C42 5.8 40.2 4 38 4ZM24 4C25.1 4 26 4.9 26 6C26 7.1 25.1 8 24 8C22.9 8 22 7.1 22 6C22 4.9 22.9 4 24 4ZM36 40H12C10.9 40 10 39.1 10 38V10C10 8.9 10.9 8 12 8H14V10C14 12.2 15.8 14 18 14H30C32.2 14 34 12.2 34 10V8H36C37.1 8 38 8.9 38 10V38C38 39.1 37.1 40 36 40Z" fill="#5AE2CA"/>
</svg>
