<svg width="48" height="48" viewBox="0 0 48 48" fill="none" xmlns="http://www.w3.org/2000/svg">
<path d="M24 4C12.96 4 4 12.96 4 24C4 35.04 12.96 44 24 44C35.04 44 44 35.04 44 24C44 12.96 35.04 4 24 4ZM22 39.86C14.1 38.88 8 32.16 8 24C8 22.76 8.16 21.58 8.42 20.42L18 30V32C18 34.2 19.8 36 22 36V39.86ZM35.8 34.78C35.28 33.16 33.8 32 32 32H30V26C30 24.9 29.1 24 28 24H16V20H20C21.1 20 22 19.1 22 18V14H26C28.2 14 30 12.2 30 10V9.18C35.86 11.56 40 17.3 40 24C40 28.16 38.4 31.94 35.8 34.78Z" fill="#5AE2CA"/>
</svg>
