<svg width="48" height="48" viewBox="0 0 48 48" fill="none" xmlns="http://www.w3.org/2000/svg">
<path d="M32 22C35.32 22 37.98 19.32 37.98 16C37.98 12.68 35.32 10 32 10C28.68 10 26 12.68 26 16C26 19.32 28.68 22 32 22ZM16 22C19.32 22 21.98 19.32 21.98 16C21.98 12.68 19.32 10 16 10C12.68 10 10 12.68 10 16C10 19.32 12.68 22 16 22ZM16 26C11.34 26 2 28.34 2 33V36C2 37.1 2.9 38 4 38H28C29.1 38 30 37.1 30 36V33C30 28.34 20.66 26 16 26ZM32 26C31.42 26 30.76 26.04 30.06 26.1C30.1 26.12 30.12 26.16 30.14 26.18C32.42 27.84 34 30.06 34 33V36C34 36.7 33.86 37.38 33.64 38H44C45.1 38 46 37.1 46 36V33C46 28.34 36.66 26 32 26Z" fill="#5AE2CA"/>
</svg>
