<svg width="48" height="48" viewBox="0 0 48 48" fill="none" xmlns="http://www.w3.org/2000/svg">
<path d="M24.18 5.81991C20.16 1.79991 14.14 0.979909 9.30001 3.33991L16.56 10.5999C17.34 11.3799 17.34 12.6399 16.56 13.4199L13.38 16.5999C12.6 17.3999 11.34 17.3999 10.56 16.5999L3.30001 9.33991C0.960007 14.1999 1.78001 20.1799 5.80001 24.1999C9.52001 27.9199 14.96 28.8999 19.58 27.1599L35.5 43.0799C37.56 45.1399 40.88 45.1399 42.92 43.0799C44.98 41.0199 44.98 37.6999 42.92 35.6599L27.08 19.7999C28.92 15.1199 27.96 9.59991 24.18 5.81991Z" fill="#5AE2CA"/>
</svg>
